<svg xmlns="http://www.w3.org/2000/svg" viewBox="0 0 24 24">
  <g stroke="#ffffff" stroke-width="0.9" stroke-linejoin="round">
    <path d="M12 12 L21 12 A9 9 0 0 1 16.5 19.79 Z" fill="#ff5a5a" />
    <path d="M12 12 L16.5 19.79 A9 9 0 0 1 7.5 19.79 Z" fill="#ffd23f" />
    <path d="M12 12 L7.5 19.79 A9 9 0 0 1 3 12 Z" fill="#7ed957" />
    <path d="M12 12 L3 12 A9 9 0 0 1 7.5 4.21 Z" fill="#22c1e0" />
    <path d="M12 12 L7.5 4.21 A9 9 0 0 1 16.5 4.21 Z" fill="#5b8def" />
    <path d="M12 12 L16.5 4.21 A9 9 0 0 1 21 12 Z" fill="#c74fe0" />
  </g>
  <circle cx="12" cy="12" r="2.4" fill="#ffffff" />
</svg>
