<svg width="84" height="84" viewBox="0 0 64 64" fill="none" xmlns="http://www.w3.org/2000/svg">
  <defs>
    <clipPath id="skillsInnerClip">
      <circle cx="32" cy="32" r="13"/>
    </clipPath>
  </defs>
  <g fill="#0E7490">
    <rect x="29" y="6" width="6" height="8" rx="2"/>
    <rect x="29" y="6" width="6" height="8" rx="2" transform="rotate(45 32 32)"/>
    <rect x="29" y="6" width="6" height="8" rx="2" transform="rotate(90 32 32)"/>
    <rect x="29" y="6" width="6" height="8" rx="2" transform="rotate(135 32 32)"/>
    <rect x="29" y="6" width="6" height="8" rx="2" transform="rotate(180 32 32)"/>
    <rect x="29" y="6" width="6" height="8" rx="2" transform="rotate(225 32 32)"/>
    <rect x="29" y="6" width="6" height="8" rx="2" transform="rotate(270 32 32)"/>
    <rect x="29" y="6" width="6" height="8" rx="2" transform="rotate(315 32 32)"/>
  </g>
  <circle cx="32" cy="32" r="18" fill="none" stroke="#0E7490" stroke-width="6"/>
  <circle cx="32" cy="32" r="13" fill="#ECFEFF"/>
  <g fill="#22D3EE" clip-path="url(#skillsInnerClip)">
    <circle cx="32" cy="27" r="4.5"/>
    <circle cx="32" cy="41" r="9"/>
  </g>
</svg>
